<mxfile host="app.diagrams.net" modified="2023-07-21T12:20:36.693Z" agent="Mozilla/5.0 (Windows NT 10.0; Win64; x64) AppleWebKit/537.36 (KHTML, like Gecko) Chrome/114.0.0.0 Safari/537.36" version="21.6.5" etag="azkt19_MdoOoOZJOxo_K" type="github">
  <diagram name="Pagina-1" id="zHvlN3MytkpJjluKCO1E">
    <mxGraphModel>
      <root>
        <mxCell id="0" />
        <mxCell id="1" parent="0" />
      </root>
    </mxGraphModel>
  </diagram>
</mxfile>
